# xmcd
#
# Track frame offsets:
#	150
#	16547
#	30805
#	47362
#	64020
#	77177
#	93395
#	106052
#	118900
#	129745
#	142310
#	153350
#
# Disc length: 2203 seconds
#
# Revision: 1
# Processed by: cddbd v1.5PL3 Copyright (c) Steve Scherf et al.
# Submitted via: EasyCDDAExtractor 7.0.0.1
#
DISCID=9008990c
DTITLE=Merle Haggard - More Great No.1 Hits
DYEAR=1996
DGENRE=Country
TTITLE0=It's All in the Movies
TTITLE1=Always Wanting You
TTITLE2=Ramblin Fever
TTITLE3=Daddy Frank
TTITLE4=Fighting Side of Me
TTITLE5=It's Not Love
TTITLE6=If We Make It Through December
TTITLE7=I'm Always on a Mountain
TTITLE8=Someday We'll Look Back
TTITLE9=The Roots of My Raising
TTITLE10=Old Man From the Mountain
TTITLE11=Things Aren't Funny Anymore
EXTD=
EXTT0=
EXTT1=
EXTT2=
EXTT3=
EXTT4=
EXTT5=
EXTT6=
EXTT7=
EXTT8=
EXTT9=
EXTT10=
EXTT11=
PLAYORDER=
